<svg xmlns="http://www.w3.org/2000/svg" xmlns:xlink="http://www.w3.org/1999/xlink" width="192" zoomAndPan="magnify" viewBox="0 0 144 143.999998" height="192" preserveAspectRatio="xMidYMid meet" version="1.0"><defs><clipPath id="838c81d5ed"><path d="M 10 14.398438 L 124 14.398438 L 124 63 L 10 63 Z M 10 14.398438 " clip-rule="nonzero"/></clipPath><clipPath id="1116d98f08"><path d="M 4.308594 44 L 140 44 L 140 123 L 4.308594 123 Z M 4.308594 44 " clip-rule="nonzero"/></clipPath><clipPath id="f323410a0b"><path d="M 4.308594 69 L 140 69 L 140 123 L 4.308594 123 Z M 4.308594 69 " clip-rule="nonzero"/></clipPath><clipPath id="10c7fbec76"><path d="M 10 14.398438 L 124 14.398438 L 124 63 L 10 63 Z M 10 14.398438 " clip-rule="nonzero"/></clipPath><clipPath id="ed7043ca67"><path d="M 58.488281 30.507812 L 58.894531 30.507812 L 58.894531 30.789062 L 58.488281 30.789062 Z M 58.488281 30.507812 " clip-rule="nonzero"/></clipPath><clipPath id="39ab2d8bd0"><path d="M 58.875 30.675781 C 58.125 30.976562 58.726562 30.523438 58.726562 30.523438 " clip-rule="nonzero"/></clipPath></defs><g clip-path="url(#838c81d5ed)"><path fill="#303033" d="M 11.683594 49.085938 C 12.027344 49.378906 12.550781 49.476562 13.007812 49.613281 C 15.207031 50.28125 17.414062 50.933594 19.617188 51.589844 C 23.433594 52.402344 27.234375 53.296875 31.066406 54.007812 C 43.578125 56.328125 56.101562 58.582031 68.621094 60.847656 C 71.324219 61.332031 74.027344 61.933594 76.753906 62.140625 C 78.328125 62.261719 80.097656 62.023438 81.53125 61.394531 C 89.542969 57.890625 97.5 54.265625 105.429688 50.578125 C 109.675781 48.601562 113.828125 46.417969 118.171875 44.214844 C 121.976562 41.65625 123.132812 38.003906 123.148438 33.882812 C 123.160156 30.730469 121.6875 28.914062 118.851562 28.246094 C 118.570312 28.660156 118.375 29.304688 117.992188 29.449219 C 117.964844 29.460938 117.941406 29.46875 117.914062 29.480469 C 117.941406 29.46875 117.964844 29.460938 117.992188 29.449219 C 118.375 29.304688 118.570312 28.660156 118.796875 28.207031 C 118.609375 28.128906 118.476562 28.089844 118.21875 28.070312 C 116.164062 28.765625 114.203125 29.382812 112.296875 30.128906 C 114.203125 29.386719 116.160156 28.765625 118.144531 27.992188 C 113.210938 26.402344 108.273438 24.722656 103.230469 23.457031 C 91.578125 20.542969 79.863281 17.878906 68.210938 15 C 65.964844 14.445312 63.816406 14.398438 61.644531 14.960938 C 52.207031 17.40625 42.757812 19.792969 33.371094 22.414062 C 27.191406 24.136719 21.113281 26.214844 14.992188 28.132812 C 14.097656 28.414062 13.25 28.726562 13.984375 29.921875 C 14.808594 29.996094 15.660156 29.972656 16.480469 30.0625 C 15.65625 29.976562 14.800781 30.023438 13.96875 30.027344 C 14.027344 31.644531 15.507812 30.601562 16.152344 31.277344 C 16.511719 31.296875 16.761719 31.273438 16.992188 31.332031 C 21.992188 32.632812 26.976562 33.992188 31.988281 35.234375 C 40.574219 37.363281 49.179688 39.417969 57.777344 41.5 C 63.285156 42.835938 68.808594 44.113281 74.296875 45.53125 C 78.242188 46.558594 80.421875 49.457031 80.390625 53.242188 C 80.417969 49.457031 78.238281 46.558594 74.296875 45.539062 C 68.808594 44.117188 63.285156 42.84375 57.777344 41.507812 C 49.179688 39.421875 40.574219 37.367188 31.988281 35.238281 C 26.976562 33.996094 21.992188 32.636719 16.992188 31.339844 C 16.761719 31.277344 16.511719 31.300781 16.152344 31.398438 C 16.59375 34.0625 17.4375 36.589844 17.640625 39.167969 C 17.851562 41.796875 17.402344 44.460938 14.804688 46.105469 C 14.289062 46.429688 13.863281 46.898438 13.472656 47.382812 C 14.199219 47.582031 14.886719 47.765625 15.570312 47.914062 C 14.878906 47.765625 14.164062 47.578125 13.347656 47.378906 C 12.8125 47.273438 12.457031 47.160156 12.148438 47.238281 C 11.691406 47.355469 11.265625 47.609375 10.828125 47.804688 C 11.105469 48.238281 11.308594 48.765625 11.683594 49.085938 Z M 96.011719 37.625 C 95.46875 37.824219 94.828125 37.765625 94.230469 37.824219 C 94.824219 37.765625 95.464844 37.824219 96.011719 37.625 C 96.09375 37.59375 96.171875 37.566406 96.253906 37.535156 C 96.171875 37.566406 96.09375 37.59375 96.011719 37.625 Z M 35.703125 41.621094 C 37.71875 42.167969 39.757812 42.617188 41.769531 43.179688 C 45.289062 44.167969 48.785156 45.238281 52.304688 46.21875 C 54.476562 46.824219 56.679688 47.324219 58.949219 47.933594 C 60.707031 48.503906 62.402344 48.945312 64.050781 49.542969 C 65.457031 50.050781 66.976562 49.859375 68.367188 50.859375 C 69.632812 51.765625 71.453125 51.929688 73.050781 52.332031 C 73.097656 52.34375 73.144531 52.347656 73.195312 52.351562 C 73.144531 52.347656 73.09375 52.34375 73.046875 52.332031 C 71.449219 51.929688 69.628906 51.765625 68.367188 50.859375 C 66.972656 49.863281 65.453125 50.050781 64.046875 49.542969 C 62.402344 48.949219 60.707031 48.507812 59.03125 47.996094 C 56.679688 47.324219 54.476562 46.824219 52.304688 46.21875 C 48.78125 45.238281 45.285156 44.167969 41.765625 43.179688 C 39.757812 42.617188 37.714844 42.167969 35.699219 41.621094 C 35.328125 41.519531 35.019531 41.195312 34.683594 40.96875 C 35.03125 40.910156 35.398438 40.753906 35.726562 40.796875 C 35.398438 40.757812 35.03125 40.910156 34.683594 40.96875 C 35.023438 41.191406 35.332031 41.519531 35.703125 41.621094 Z M 37.128906 41.042969 C 38.175781 41.234375 39.214844 41.441406 40.246094 41.683594 C 39.214844 41.441406 38.175781 41.234375 37.128906 41.042969 Z M 54.796875 48.460938 C 54.425781 48.253906 54.066406 48.027344 53.679688 47.851562 C 53.425781 47.738281 53.132812 47.695312 52.859375 47.636719 C 51.3125 47.304688 49.769531 46.964844 48.214844 46.664062 C 48.066406 46.636719 47.871094 46.847656 47.695312 46.949219 C 47.871094 46.847656 48.066406 46.632812 48.214844 46.664062 C 49.769531 46.960938 51.3125 47.300781 52.859375 47.632812 C 53.136719 47.691406 53.425781 47.734375 53.679688 47.847656 C 54.066406 48.023438 54.429688 48.253906 54.800781 48.460938 C 54.800781 48.460938 54.800781 48.460938 54.796875 48.460938 Z M 54.546875 48.46875 C 54.230469 48.480469 53.914062 48.492188 53.597656 48.503906 C 52.160156 48.105469 50.773438 47.808594 49.398438 47.527344 C 50.769531 47.804688 52.148438 48.085938 53.554688 48.417969 C 53.902344 48.476562 54.226562 48.476562 54.546875 48.46875 Z M 46.023438 46.085938 C 45.785156 45.996094 45.550781 45.898438 45.304688 45.828125 C 44.597656 45.625 43.902344 45.351562 43.179688 45.253906 C 42.597656 45.175781 41.992188 45.3125 41.394531 45.355469 C 41.394531 45.351562 41.390625 45.351562 41.390625 45.351562 C 41.988281 45.3125 42.597656 45.171875 43.179688 45.253906 C 43.902344 45.347656 44.597656 45.621094 45.304688 45.828125 C 45.550781 45.894531 45.785156 45.996094 46.027344 46.082031 C 46.027344 46.082031 46.023438 46.082031 46.023438 46.085938 Z M 44.347656 46.371094 C 43.855469 46.277344 43.371094 46.152344 42.882812 46.050781 C 42.847656 46.035156 42.8125 46.019531 42.78125 46.003906 C 43.339844 46.136719 43.847656 46.273438 44.347656 46.371094 Z M 79.121094 58.453125 C 79.652344 58.183594 79.894531 57.351562 80.265625 56.773438 C 80.257812 56.230469 80.171875 55.671875 80.214844 55.140625 C 80.171875 55.675781 80.269531 56.226562 80.367188 56.753906 C 80.585938 56.59375 80.730469 56.464844 80.804688 56.300781 C 82.714844 52.328125 80.554688 47.269531 76.714844 45.242188 C 80.5625 47.265625 82.722656 52.328125 80.816406 56.304688 C 80.738281 56.464844 80.589844 56.59375 80.375 56.753906 C 79.898438 57.351562 79.65625 58.179688 79.128906 58.453125 C 78.53125 58.757812 77.867188 59.101562 77.207031 59.316406 C 77.867188 59.101562 78.527344 58.757812 79.121094 58.453125 Z M 72.136719 47.828125 C 72.003906 47.773438 71.867188 47.71875 71.734375 47.667969 C 71.867188 47.71875 72.003906 47.773438 72.136719 47.828125 Z M 71.378906 47.53125 C 71.230469 47.476562 71.085938 47.425781 70.9375 47.371094 C 71.085938 47.425781 71.234375 47.476562 71.378906 47.53125 Z M 68.988281 46.707031 C 67.660156 46.359375 66.40625 46.035156 65.167969 45.707031 C 66.425781 46.039062 67.6875 46.363281 68.945312 46.695312 C 68.960938 46.699219 68.972656 46.703125 68.988281 46.707031 Z M 31.457031 37.457031 C 31.585938 37.628906 31.683594 37.851562 31.851562 37.953125 C 32.09375 38.097656 32.390625 38.144531 32.660156 38.246094 C 35.070312 39.164062 37.722656 39.121094 40.117188 40.148438 C 41.015625 40.53125 42.050781 40.578125 43 40.859375 C 46.21875 41.804688 49.417969 42.808594 52.640625 43.75 C 58.320312 45.410156 64.007812 47.03125 69.6875 48.683594 C 70.457031 48.90625 71.183594 49.300781 71.964844 49.421875 C 72.292969 49.476562 72.703125 49.035156 73.078125 48.816406 C 72.707031 49.035156 72.292969 49.476562 71.960938 49.425781 C 71.183594 49.300781 70.453125 48.910156 69.6875 48.683594 C 64.003906 47.035156 58.316406 45.410156 52.636719 43.753906 C 49.417969 42.8125 46.214844 41.808594 42.996094 40.863281 C 42.046875 40.582031 41.011719 40.53125 40.113281 40.148438 C 37.71875 39.125 35.066406 39.167969 32.65625 38.25 C 32.386719 38.148438 32.089844 38.101562 31.851562 37.957031 C 31.679688 37.851562 31.582031 37.628906 31.453125 37.460938 C 31.453125 37.457031 31.453125 37.457031 31.457031 37.457031 Z M 31.71875 43.335938 C 31.425781 43.371094 31.121094 43.472656 30.839844 43.425781 C 28.484375 43.050781 26.128906 42.667969 23.78125 42.234375 C 23.484375 42.179688 23.246094 41.824219 22.976562 41.609375 C 22.976562 41.53125 22.976562 41.484375 22.976562 41.449219 C 25.675781 41.824219 28.335938 42.195312 30.988281 42.625 C 31.261719 42.671875 31.476562 43.09375 31.71875 43.335938 Z M 30.898438 39.804688 C 30.75 39.847656 30.59375 39.949219 30.460938 39.925781 C 28.789062 39.621094 27.121094 39.304688 25.453125 38.976562 C 25.339844 38.957031 25.25 38.84375 25.152344 38.773438 C 25.285156 38.695312 25.425781 38.546875 25.550781 38.558594 C 26.054688 38.609375 26.554688 38.703125 27.058594 38.785156 C 28.390625 39.070312 29.492188 39.296875 30.589844 39.539062 C 30.707031 39.566406 30.792969 39.714844 30.898438 39.804688 Z M 24.152344 35.398438 C 25.613281 35.710938 27.054688 36.121094 28.5 36.507812 C 28.695312 36.558594 28.871094 36.675781 29.058594 36.765625 C 28.839844 36.925781 28.644531 37.148438 28.402344 37.214844 C 28.214844 37.269531 27.976562 37.128906 27.757812 37.0625 C 26.203125 36.601562 24.640625 36.140625 23.082031 35.679688 C 23.3125 35.554688 23.769531 35.316406 24.152344 35.398438 Z M 16.265625 48.042969 C 16.152344 48.027344 16.042969 48.007812 15.929688 47.984375 C 16.042969 48.007812 16.152344 48.027344 16.265625 48.042969 Z M 16.265625 48.042969 " fill-opacity="1" fill-rule="nonzero"/></g><path fill="#303033" d="M 13.503906 71.234375 C 13.769531 71.371094 13.945312 71.460938 14.132812 71.503906 C 26.636719 74.402344 39.144531 77.296875 51.648438 80.195312 C 59.449219 82.003906 67.246094 83.816406 75.042969 85.632812 C 76.839844 86.054688 78.75 84.84375 79.289062 83.015625 C 80.085938 80.308594 79.605469 77.695312 78.851562 75.082031 C 77.765625 71 74.410156 70.429688 70.925781 69.804688 C 62.753906 68.332031 54.605469 66.757812 46.472656 65.113281 C 38.386719 63.472656 30.324219 61.71875 22.265625 59.953125 C 19.171875 59.277344 16.113281 58.433594 12.9375 57.769531 C 13.128906 58.484375 13.417969 59.097656 13.707031 59.707031 C 14.21875 59.855469 14.726562 60.027344 15.242188 60.160156 C 14.726562 60.03125 14.207031 59.867188 13.628906 59.765625 C 13.300781 60.53125 13.46875 61.011719 14.402344 61.113281 C 16.8125 61.5 19.109375 61.882812 21.398438 62.308594 C 25.941406 63.15625 30.484375 64 35.015625 64.898438 C 37.894531 65.46875 40.742188 66.164062 43.613281 66.777344 C 45.839844 67.25 48.078125 67.683594 50.3125 68.125 C 50.355469 68.132812 50.398438 68.132812 50.441406 68.132812 C 50.398438 68.132812 50.351562 68.132812 50.308594 68.125 C 48.074219 67.683594 45.835938 67.25 43.609375 66.777344 C 40.742188 66.164062 37.886719 65.46875 35.011719 64.898438 C 30.480469 64 25.9375 63.15625 21.394531 62.308594 C 19.105469 61.882812 16.808594 61.5 14.398438 61.234375 C 14.324219 61.65625 14.375 61.933594 14.402344 62.214844 C 14.640625 64.546875 15.425781 66.886719 14.308594 69.304688 C 14.015625 69.996094 13.71875 70.582031 13.503906 71.234375 Z M 69.652344 72.601562 C 69.484375 72.480469 69.335938 72.300781 69.152344 72.238281 C 68.980469 72.183594 68.8125 72.128906 68.640625 72.074219 C 68.8125 72.128906 68.980469 72.183594 69.152344 72.238281 C 69.335938 72.300781 69.484375 72.480469 69.652344 72.601562 Z M 53.40625 68.113281 C 57.0625 69.074219 60.707031 70.101562 64.355469 71.078125 C 64.691406 71.164062 65.085938 71.042969 65.453125 71.023438 C 66.285156 71.316406 67.050781 71.566406 67.792969 71.804688 C 67.058594 71.570312 66.316406 71.339844 65.539062 71.078125 C 65.085938 71.042969 64.691406 71.164062 64.355469 71.078125 C 60.707031 70.101562 57.0625 69.074219 53.40625 68.113281 C 53.050781 68.019531 52.613281 68.25 52.207031 68.332031 C 52.609375 68.25 53.050781 68.019531 53.40625 68.113281 Z M 50.496094 69.78125 C 50.214844 69.730469 49.933594 69.667969 49.65625 69.601562 C 49.9375 69.667969 50.21875 69.730469 50.496094 69.777344 C 50.839844 69.835938 51.207031 69.730469 51.566406 69.703125 C 51.566406 69.703125 51.570312 69.703125 51.570312 69.703125 C 51.210938 69.734375 50.839844 69.839844 50.496094 69.78125 Z M 39.15625 65.316406 C 39.34375 65.308594 39.535156 65.308594 39.722656 65.3125 C 39.535156 65.308594 39.347656 65.308594 39.15625 65.316406 Z M 42.175781 67.453125 C 42.347656 67.65625 42.496094 67.992188 42.707031 68.042969 C 43.921875 68.332031 45.144531 68.597656 46.402344 68.863281 C 45.117188 68.59375 43.910156 68.332031 42.707031 68.046875 C 42.496094 67.996094 42.351562 67.65625 42.171875 67.453125 C 42.171875 67.453125 42.171875 67.453125 42.175781 67.453125 Z M 42.175781 67.453125 " fill-opacity="1" fill-rule="nonzero"/><g clip-path="url(#1116d98f08)"><path fill="#303033" d="M 139.398438 80.828125 C 136.597656 81.378906 133.910156 81.898438 131.253906 82.542969 C 110.78125 87.519531 90.3125 92.519531 69.84375 97.511719 C 67.648438 98.050781 65.464844 98.644531 63.257812 99.121094 C 62.535156 99.273438 61.746094 99.117188 61.136719 99.582031 C 61.746094 99.113281 62.535156 99.273438 63.257812 99.117188 C 65.46875 98.640625 67.648438 98.046875 69.847656 97.511719 C 90.3125 92.515625 110.78125 87.515625 131.253906 82.542969 C 133.910156 81.898438 136.601562 81.378906 139.398438 80.71875 C 139.011719 80.171875 138.566406 79.574219 137.972656 79.261719 C 137.085938 78.800781 136.09375 78.53125 135.144531 78.191406 C 127.3125 75.40625 119.484375 72.617188 111.652344 69.832031 C 108.972656 71.351562 106.285156 72.84375 103.601562 74.351562 C 106.296875 72.832031 109.011719 71.320312 111.738281 69.769531 C 115.261719 68.035156 118.695312 66.375 122.125 64.707031 C 124.796875 63.410156 126.511719 61.210938 126.929688 58.386719 C 127.285156 56 127.230469 53.472656 126.851562 51.085938 C 126.476562 48.730469 125.25 46.523438 122.949219 45.453125 C 121.496094 44.78125 119.800781 44.644531 118.117188 44.300781 C 113.828125 46.421875 109.675781 48.605469 105.429688 50.582031 C 97.5 54.269531 89.542969 57.894531 81.53125 61.398438 C 80.097656 62.027344 78.328125 62.265625 76.753906 62.144531 C 74.027344 61.933594 71.324219 61.335938 68.621094 60.847656 C 56.097656 58.582031 43.578125 56.328125 31.066406 54.011719 C 27.234375 53.296875 23.433594 52.402344 19.527344 51.660156 C 16.953125 52.234375 14.445312 52.660156 11.992188 53.296875 C 11.316406 53.472656 10.804688 54.269531 10.214844 54.78125 C 10.300781 54.773438 10.398438 54.742188 10.484375 54.726562 C 10.398438 54.753906 10.292969 54.808594 10.195312 54.882812 C 10.054688 56.863281 11.78125 56.929688 12.925781 57.667969 C 16.117188 58.429688 19.175781 59.273438 22.269531 59.949219 C 30.328125 61.714844 38.390625 63.46875 46.476562 65.109375 C 54.609375 66.757812 62.765625 68.328125 70.929688 69.800781 C 74.410156 70.429688 77.761719 71 78.96875 75.046875 C 79.050781 74.777344 79.101562 74.511719 79.089844 74.261719 C 79.105469 74.511719 79.050781 74.78125 78.96875 75.054688 C 79.609375 77.699219 80.085938 80.316406 79.292969 83.023438 C 78.753906 84.851562 76.84375 86.058594 75.046875 85.640625 C 67.246094 83.824219 59.449219 82.011719 51.652344 80.203125 C 39.144531 77.304688 26.640625 74.410156 14.132812 71.511719 C 13.945312 71.46875 13.773438 71.382812 13.378906 71.242188 C 13.019531 71.164062 12.84375 71.101562 12.734375 71.164062 C 12.128906 71.503906 11.144531 71.773438 11.027344 72.25 C 10.996094 72.359375 10.988281 72.460938 10.992188 72.554688 C 10.984375 72.460938 10.996094 72.355469 11.027344 72.242188 C 11.144531 71.765625 12.128906 71.496094 12.734375 71.15625 C 12.839844 71.09375 13.015625 71.15625 13.289062 71.164062 C 13.71875 70.585938 14.019531 70 14.199219 69.328125 C 12.710938 69.714844 11.367188 70.277344 9.976562 70.644531 C 7.15625 71.382812 5.527344 73.347656 5.132812 76.003906 C 4.648438 79.3125 4.609375 82.691406 4.480469 86.046875 C 4.375 88.707031 5.863281 90.570312 7.925781 92.011719 C 13.699219 96.050781 19.410156 100.191406 25.3125 104.039062 C 34.652344 110.128906 43.957031 116.292969 54.132812 120.976562 C 56.515625 122.074219 58.9375 123.152344 61.628906 122.753906 C 64.199219 122.375 66.777344 121.902344 69.277344 121.214844 C 84.214844 117.109375 99.144531 112.976562 114.046875 108.75 C 121.601562 106.605469 129.097656 104.253906 136.597656 101.933594 C 137.117188 101.773438 137.476562 101.09375 137.914062 100.65625 C 137.367188 100.410156 136.816406 100.167969 136.269531 99.921875 C 126.453125 102.554688 116.628906 105.171875 106.8125 107.8125 C 116.628906 105.167969 126.445312 102.535156 136.234375 99.832031 C 133.507812 97.347656 133.054688 94.207031 133.433594 90.898438 C 133.597656 89.441406 134.105469 87.996094 134.628906 86.609375 C 135.109375 85.34375 135.820312 84.164062 136.429688 82.949219 C 136.4375 82.945312 136.441406 82.945312 136.445312 82.945312 C 136.460938 82.9375 136.496094 82.945312 136.496094 82.945312 C 136.5625 82.882812 136.640625 82.855469 136.902344 82.839844 C 137.710938 82.636719 138.363281 82.484375 138.996094 82.273438 C 139.742188 82.03125 140 81.570312 139.398438 80.828125 Z M 105.480469 99.539062 C 105.472656 99.542969 105.464844 99.550781 105.457031 99.558594 C 105.464844 99.550781 105.472656 99.542969 105.480469 99.539062 Z M 92.167969 101.082031 C 92.140625 101.074219 92.117188 101.070312 92.089844 101.066406 C 96.160156 99.929688 100.105469 98.742188 104.082031 97.667969 C 100.09375 98.746094 96.136719 99.9375 92.167969 101.082031 Z M 101.984375 100.175781 C 101.082031 100.40625 100.167969 100.636719 99.226562 100.871094 C 99.203125 100.878906 99.179688 100.878906 99.15625 100.886719 C 100.136719 100.640625 101.074219 100.40625 101.984375 100.175781 Z M 97.484375 101.460938 C 97.832031 101.484375 98.203125 101.601562 98.527344 101.519531 C 100.734375 100.972656 102.933594 100.382812 105.132812 99.800781 C 105.175781 99.789062 105.214844 99.765625 105.25 99.738281 C 105.210938 99.765625 105.175781 99.789062 105.132812 99.800781 C 102.933594 100.386719 100.734375 100.976562 98.527344 101.523438 C 98.203125 101.605469 97.832031 101.488281 97.480469 101.464844 C 97.480469 101.460938 97.480469 101.460938 97.484375 101.460938 Z M 102.414062 94.957031 C 102.550781 94.980469 102.707031 95.054688 102.828125 95.015625 C 103.351562 94.84375 103.847656 94.578125 104.382812 94.460938 C 105.855469 94.136719 107.351562 93.933594 108.8125 93.574219 C 110.316406 93.203125 111.816406 92.824219 113.320312 92.433594 C 111.808594 92.828125 110.3125 93.207031 108.8125 93.574219 C 107.351562 93.933594 105.855469 94.140625 104.382812 94.464844 C 103.847656 94.582031 103.347656 94.847656 102.828125 95.019531 C 102.707031 95.058594 102.550781 94.980469 102.410156 94.960938 C 102.410156 94.957031 102.410156 94.957031 102.414062 94.957031 Z M 91.761719 100.320312 C 93.902344 99.714844 96.039062 99.109375 98.179688 98.507812 C 96.039062 99.109375 93.902344 99.714844 91.761719 100.320312 Z M 91.164062 100.839844 C 91.089844 100.816406 91.019531 100.796875 90.949219 100.773438 C 90.949219 100.773438 90.949219 100.773438 90.953125 100.769531 C 90.949219 100.773438 90.949219 100.773438 90.949219 100.773438 C 91.019531 100.796875 91.089844 100.816406 91.164062 100.839844 Z M 100.480469 56.285156 C 105.625 53.484375 110.769531 50.664062 115.976562 47.828125 C 116.535156 47.519531 117.054688 47.25 117.546875 46.960938 C 117.0625 47.246094 116.5625 47.511719 116.078125 47.792969 C 110.796875 50.65625 105.628906 53.484375 100.480469 56.285156 Z M 96.296875 58.550781 C 97.570312 57.863281 98.839844 57.175781 100.109375 56.484375 C 98.839844 57.175781 97.570312 57.863281 96.296875 58.550781 Z M 94.566406 58.332031 C 102.273438 54.097656 109.992188 49.886719 117.730469 45.703125 C 118.335938 45.378906 119.085938 45.320312 119.769531 45.136719 C 119.085938 45.320312 118.335938 45.378906 117.730469 45.703125 C 109.996094 49.886719 102.277344 54.097656 94.570312 58.332031 C 94.003906 58.644531 93.558594 59.171875 93.058594 59.601562 C 93.054688 59.601562 93.054688 59.601562 93.054688 59.601562 C 93.554688 59.175781 94.003906 58.644531 94.566406 58.332031 Z M 35.535156 88.070312 C 33.152344 86.804688 30.730469 85.597656 28.4375 84.179688 C 24.050781 81.472656 19.734375 78.65625 15.414062 75.847656 C 14.957031 75.550781 13.980469 75.257812 15.003906 74.386719 C 14.667969 74.261719 14.3125 74.125 13.945312 73.996094 C 14.332031 74.125 14.71875 74.261719 15.109375 74.382812 C 15.351562 74.496094 15.59375 74.609375 16.054688 74.722656 C 16.296875 74.734375 16.488281 74.738281 16.65625 74.746094 C 16.503906 74.742188 16.34375 74.742188 16.15625 74.742188 C 21.570312 78.871094 27.289062 82.683594 33.496094 85.730469 C 34.398438 86.175781 35.246094 86.730469 36.082031 87.296875 C 36.316406 87.460938 36.402344 87.835938 36.554688 88.117188 C 36.214844 88.105469 35.808594 88.210938 35.535156 88.070312 Z M 59.253906 102.664062 C 58.347656 104.59375 57.863281 106.632812 58.355469 108.917969 C 58.558594 108.695312 58.671875 108.5 58.742188 108.292969 C 59.433594 106.277344 59.980469 104.203125 60.863281 102.277344 C 60.953125 102.082031 61.085938 101.886719 61.242188 101.703125 C 61.085938 101.886719 60.957031 102.082031 60.867188 102.273438 C 59.984375 104.199219 59.4375 106.277344 58.746094 108.289062 C 58.675781 108.5 58.558594 108.691406 58.351562 109.039062 C 58.289062 109.921875 58.316406 110.664062 58.378906 111.402344 C 58.316406 110.664062 58.285156 109.917969 58.246094 109.058594 C 57.832031 106.675781 58.335938 104.605469 59.253906 102.664062 Z M 114.410156 95.066406 C 115.496094 94.710938 116.570312 94.320312 117.671875 94.035156 C 116.570312 94.324219 115.492188 94.710938 114.410156 95.066406 Z M 129.042969 88.289062 C 128.070312 88.550781 127.097656 88.8125 126.125 89.066406 C 127.101562 88.808594 128.074219 88.550781 129.042969 88.285156 C 129.308594 88.214844 129.484375 87.832031 129.703125 87.59375 C 129.703125 87.59375 129.703125 87.59375 129.707031 87.59375 C 129.484375 87.832031 129.308594 88.214844 129.042969 88.289062 Z M 129.042969 88.289062 " fill-opacity="1" fill-rule="nonzero"/></g><path fill="#303033" d="M 136.554688 82.992188 C 136.695312 82.992188 136.777344 82.945312 136.796875 82.882812 C 136.640625 82.855469 136.5625 82.882812 136.554688 82.992188 Z M 136.554688 82.992188 " fill-opacity="1" fill-rule="nonzero"/><path fill="#2e59a7" d="M 55.507812 96.894531 C 55.894531 97.085938 56.269531 97.367188 56.679688 97.441406 C 57.210938 97.539062 57.769531 97.46875 58.316406 97.472656 C 57.925781 97.113281 57.597656 96.609375 57.136719 96.421875 C 53.984375 95.117188 50.808594 93.863281 47.621094 92.636719 C 47.242188 92.492188 46.761719 92.601562 46.332031 92.59375 C 46.65625 92.902344 46.929688 93.332031 47.3125 93.496094 C 49.964844 94.621094 52.640625 95.695312 55.507812 96.894531 Z M 55.507812 96.894531 " fill-opacity="1" fill-rule="nonzero"/><g clip-path="url(#f323410a0b)"><path fill="#f45830" d="M 98.691406 110.003906 C 86.679688 113.265625 74.679688 116.574219 62.695312 119.925781 C 61.636719 120.222656 61.144531 119.824219 60.664062 119.121094 C 59.089844 116.816406 58.625 114.171875 58.382812 111.46875 C 58.316406 110.707031 58.285156 109.941406 58.246094 109.058594 C 57.636719 105.566406 59.007812 102.746094 60.746094 100.019531 C 61.382812 99.023438 62.367188 99.308594 63.257812 99.117188 C 65.46875 98.640625 67.648438 98.046875 69.847656 97.511719 C 90.3125 92.515625 110.78125 87.515625 131.253906 82.542969 C 133.910156 81.898438 136.601562 81.378906 139.398438 80.71875 C 139.011719 80.171875 138.566406 79.574219 137.972656 79.261719 C 137.085938 78.800781 136.09375 78.53125 135.144531 78.191406 C 127.3125 75.40625 119.484375 72.617188 111.652344 69.832031 L 14.914062 69.242188 C 14.671875 69.078125 14.351562 69.089844 14.089844 69.238281 C 13.6875 69.464844 13.273438 69.589844 12.820312 69.738281 C 11.871094 70.046875 10.9375 70.394531 9.976562 70.644531 C 7.15625 71.382812 5.527344 73.347656 5.132812 76.003906 C 4.648438 79.3125 4.609375 82.691406 4.480469 86.046875 C 4.375 88.707031 5.863281 90.570312 7.925781 92.011719 C 13.699219 96.046875 19.410156 100.191406 25.3125 104.039062 C 34.652344 110.128906 43.957031 116.292969 54.132812 120.976562 C 56.515625 122.074219 58.9375 123.152344 61.628906 122.753906 C 64.199219 122.375 66.777344 121.902344 69.277344 121.214844 C 84.214844 117.109375 99.144531 112.976562 114.046875 108.75 C 121.601562 106.605469 129.097656 104.253906 136.597656 101.933594 C 137.117188 101.773438 137.476562 101.09375 137.914062 100.65625 C 137.367188 100.410156 136.816406 100.167969 136.269531 99.921875 C 123.742188 103.28125 111.207031 106.613281 98.691406 110.003906 Z M 98.691406 110.003906 " fill-opacity="1" fill-rule="nonzero"/></g><path fill="#fcac3d" d="M 126.851562 51.085938 C 126.476562 48.730469 125.25 46.523438 122.949219 45.453125 C 121.496094 44.78125 119.800781 44.644531 118.117188 44.300781 L 47.738281 40.785156 L 19.527344 51.660156 C 16.953125 52.234375 14.445312 52.660156 11.992188 53.296875 C 11.316406 53.472656 10.804688 54.269531 10.214844 54.78125 C 10.359375 54.765625 10.554688 54.679688 10.640625 54.742188 C 14.238281 57.339844 18.613281 57.738281 22.714844 58.675781 C 35.851562 61.671875 49.050781 64.390625 62.242188 67.140625 C 66.09375 67.941406 69.980469 68.664062 73.886719 69.097656 C 77.042969 69.449219 78.359375 71.320312 79.054688 74.019531 C 79.136719 74.335938 79.078125 74.691406 78.96875 75.054688 C 79.609375 77.699219 80.085938 80.316406 79.292969 83.023438 C 78.753906 84.851562 76.84375 86.058594 75.046875 85.640625 C 67.246094 83.824219 59.449219 82.011719 51.652344 80.203125 C 39.144531 77.304688 26.640625 74.410156 14.132812 71.511719 C 13.945312 71.46875 13.773438 71.382812 13.378906 71.242188 C 13.019531 71.164062 12.84375 71.101562 12.734375 71.164062 C 12.128906 71.503906 11.144531 71.773438 11.027344 72.25 C 10.796875 73.164062 11.691406 73.417969 12.511719 73.589844 C 13.390625 73.777344 14.246094 74.113281 15.109375 74.382812 C 15.351562 74.496094 15.59375 74.609375 16.054688 74.722656 C 16.558594 74.746094 16.855469 74.738281 17.132812 74.804688 C 22.261719 75.984375 27.386719 77.199219 32.519531 78.359375 C 47.175781 81.679688 61.84375 84.933594 76.480469 88.324219 C 79.171875 88.945312 81.328125 88.417969 83.539062 86.863281 C 87.332031 84.199219 91.183594 81.601562 95.160156 79.21875 C 100.582031 75.972656 106.144531 72.957031 111.738281 69.769531 C 115.261719 68.035156 118.695312 66.375 122.125 64.707031 C 124.796875 63.410156 126.511719 61.210938 126.929688 58.386719 C 127.285156 56 127.230469 53.472656 126.851562 51.085938 Z M 126.851562 51.085938 " fill-opacity="1" fill-rule="nonzero"/><g clip-path="url(#10c7fbec76)"><path fill="#2e59a7" d="M 123.148438 33.882812 C 123.132812 38.003906 121.976562 41.65625 118.171875 44.214844 C 113.828125 46.417969 109.675781 48.601562 105.429688 50.578125 C 97.5 54.265625 89.542969 57.890625 81.53125 61.394531 C 80.097656 62.023438 78.328125 62.261719 76.753906 62.140625 C 74.027344 61.933594 71.324219 61.332031 68.621094 60.847656 C 56.101562 58.582031 43.578125 56.328125 31.066406 54.007812 C 27.234375 53.296875 23.433594 52.402344 19.617188 51.589844 C 17.414062 50.933594 15.207031 50.28125 13.007812 49.613281 C 12.550781 49.476562 12.027344 49.378906 11.683594 49.085938 C 11.308594 48.765625 11.105469 48.238281 10.828125 47.804688 C 11.265625 47.609375 11.691406 47.355469 12.148438 47.238281 C 12.457031 47.160156 12.8125 47.273438 13.347656 47.378906 C 14.53125 47.667969 15.503906 47.9375 16.492188 48.082031 C 19.632812 48.539062 22.808594 48.796875 25.917969 49.40625 C 39.71875 52.113281 53.503906 54.902344 67.289062 57.691406 C 70.109375 58.261719 72.875 59.121094 75.714844 59.511719 C 76.796875 59.660156 78.070312 58.996094 79.128906 58.453125 C 79.65625 58.179688 79.898438 57.351562 80.375 56.753906 C 80.589844 56.59375 80.738281 56.464844 80.816406 56.304688 C 82.996094 51.765625 79.867188 45.804688 74.980469 44.574219 C 69.449219 43.183594 63.921875 41.769531 58.355469 40.542969 C 44.632812 37.503906 30.980469 34.195312 17.484375 30.253906 C 16.382812 29.929688 15.152344 30.023438 13.984375 29.921875 C 13.25 28.726562 14.097656 28.414062 14.992188 28.132812 C 21.113281 26.214844 27.191406 24.136719 33.371094 22.414062 C 42.757812 19.792969 52.207031 17.40625 61.644531 14.960938 C 63.816406 14.398438 65.964844 14.445312 68.210938 15 C 79.863281 17.878906 91.578125 20.542969 103.230469 23.457031 C 108.273438 24.722656 113.210938 26.402344 118.144531 27.992188 L 118.800781 28.324219 C 118.816406 28.300781 118.835938 28.273438 118.851562 28.246094 C 121.6875 28.914062 123.160156 30.730469 123.148438 33.882812 Z M 123.148438 33.882812 " fill-opacity="1" fill-rule="nonzero"/></g><path fill="#fcac3d" d="M 116.078125 47.792969 C 116.78125 47.382812 117.523438 47.019531 118.1875 46.550781 C 118.761719 46.140625 119.246094 45.609375 119.769531 45.136719 C 119.085938 45.320312 118.335938 45.378906 117.730469 45.703125 C 109.992188 49.886719 102.273438 54.097656 94.566406 58.332031 C 94.003906 58.644531 93.554688 59.175781 93.054688 59.601562 C 93.746094 59.472656 94.527344 59.503906 95.117188 59.1875 C 102.054688 55.445312 108.964844 51.648438 116.078125 47.792969 Z M 116.078125 47.792969 " fill-opacity="1" fill-rule="nonzero"/><path fill="#e5e1d7" d="M 136.234375 99.832031 C 123.742188 103.28125 111.207031 106.613281 98.691406 110.007812 C 86.679688 113.269531 74.683594 116.578125 62.695312 119.929688 C 61.636719 120.226562 61.144531 119.824219 60.664062 119.125 C 59.085938 116.820312 58.625 114.175781 58.382812 111.46875 C 58.316406 110.710938 58.285156 109.945312 58.351562 109.039062 C 58.558594 108.691406 58.675781 108.5 58.746094 108.289062 C 59.4375 106.277344 59.984375 104.199219 60.867188 102.273438 C 61.226562 101.5 62.226562 100.722656 63.078125 100.511719 C 70.988281 98.546875 78.933594 96.714844 86.859375 94.820312 C 103.382812 90.867188 119.90625 86.90625 136.433594 82.945312 C 135.820312 84.164062 135.109375 85.339844 134.628906 86.609375 C 134.105469 87.996094 133.597656 89.441406 133.433594 90.898438 C 133.054688 94.207031 133.507812 97.347656 136.234375 99.832031 Z M 92.167969 101.082031 C 96.136719 99.9375 100.09375 98.746094 104.082031 97.667969 C 106.984375 96.882812 109.9375 96.289062 112.847656 95.53125 C 114.476562 95.109375 116.042969 94.460938 117.671875 94.035156 C 119.332031 93.601562 121.03125 93.328125 122.710938 92.960938 C 122.949219 92.910156 123.152344 92.722656 123.371094 92.597656 C 123.101562 92.480469 122.804688 92.222656 122.574219 92.269531 C 119.976562 92.828125 117.378906 93.382812 114.800781 94.03125 C 111.390625 94.886719 107.992188 95.796875 104.605469 96.726562 C 100.316406 97.898438 96.039062 99.109375 91.761719 100.320312 C 91.472656 100.402344 91.21875 100.621094 90.949219 100.773438 C 91.273438 100.875 91.601562 100.976562 92.167969 101.082031 Z M 119.683594 90.746094 C 122.804688 89.933594 125.929688 89.136719 129.042969 88.289062 C 129.308594 88.214844 129.484375 87.832031 129.707031 87.59375 C 129.414062 87.515625 129.097656 87.320312 128.832031 87.375 C 127.101562 87.726562 125.371094 88.089844 123.664062 88.535156 C 117.667969 90.097656 111.671875 91.671875 105.6875 93.304688 C 104.664062 93.585938 103.71875 94.152344 102.742188 94.609375 C 102.605469 94.671875 102.519531 94.839844 102.410156 94.960938 C 102.550781 94.980469 102.707031 95.058594 102.828125 95.019531 C 103.347656 94.847656 103.847656 94.582031 104.382812 94.464844 C 105.855469 94.140625 107.351562 93.933594 108.8125 93.574219 C 112.371094 92.699219 115.914062 91.765625 119.683594 90.746094 Z M 99.117188 100.894531 C 98.886719 100.9375 98.648438 100.949219 98.429688 101.03125 C 98.105469 101.152344 97.796875 101.316406 97.480469 101.464844 C 97.832031 101.488281 98.203125 101.605469 98.527344 101.523438 C 100.734375 100.976562 102.933594 100.386719 105.132812 99.800781 C 105.261719 99.765625 105.363281 99.628906 105.480469 99.539062 C 105.355469 99.488281 105.214844 99.367188 105.105469 99.390625 C 103.179688 99.871094 101.257812 100.363281 99.117188 100.894531 Z M 99.117188 100.894531 " fill-opacity="1" fill-rule="nonzero"/><path fill="#e5e1d7" d="M 78.851562 75.082031 C 79.605469 77.695312 80.085938 80.308594 79.289062 83.015625 C 78.75 84.84375 76.839844 86.054688 75.042969 85.632812 C 67.246094 83.816406 59.449219 82.003906 51.648438 80.195312 C 39.144531 77.296875 26.636719 74.402344 14.132812 71.503906 C 13.945312 71.460938 13.769531 71.371094 13.503906 71.234375 C 13.71875 70.582031 14.015625 69.996094 14.308594 69.304688 C 15.425781 66.886719 14.640625 64.546875 14.402344 62.214844 C 14.375 61.933594 14.324219 61.65625 14.398438 61.234375 C 16.808594 61.5 19.105469 61.882812 21.394531 62.308594 C 25.9375 63.15625 30.480469 64 35.011719 64.898438 C 37.886719 65.46875 40.742188 66.164062 43.609375 66.777344 C 45.835938 67.25 48.074219 67.683594 50.308594 68.125 C 50.484375 68.160156 50.675781 68.085938 50.863281 68.0625 C 50.722656 67.875 50.613281 67.566406 50.4375 67.515625 C 49.582031 67.277344 48.714844 67.027344 47.835938 66.933594 C 44.90625 66.605469 42.214844 65.199219 39.152344 65.316406 C 37.730469 65.371094 36.300781 64.371094 34.832031 64.070312 C 28.453125 62.761719 22.054688 61.535156 15.667969 60.261719 C 15.003906 60.128906 14.359375 59.894531 13.707031 59.707031 C 13.417969 59.097656 13.128906 58.484375 12.9375 57.769531 C 16.113281 58.433594 19.171875 59.277344 22.265625 59.953125 C 30.324219 61.71875 38.386719 63.472656 46.472656 65.113281 C 54.605469 66.757812 62.753906 68.332031 70.925781 69.804688 C 74.410156 70.429688 77.765625 71 78.851562 75.082031 Z M 65.453125 71.023438 C 65.085938 71.042969 64.691406 71.164062 64.355469 71.078125 C 60.707031 70.101562 57.0625 69.074219 53.40625 68.113281 C 53.050781 68.019531 52.609375 68.25 52.207031 68.332031 C 52.53125 68.515625 52.835938 68.792969 53.183594 68.878906 C 56.824219 69.78125 60.46875 70.660156 64.109375 71.539062 C 65.738281 71.929688 67.363281 72.3125 68.992188 72.675781 C 69.195312 72.722656 69.433594 72.628906 69.652344 72.601562 C 69.484375 72.480469 69.335938 72.300781 69.152344 72.238281 C 67.980469 71.859375 66.800781 71.503906 65.453125 71.023438 Z M 48.300781 69.257812 C 49.03125 69.4375 49.757812 69.648438 50.496094 69.78125 C 50.839844 69.839844 51.210938 69.734375 51.570312 69.703125 C 51.265625 69.464844 50.988281 69.082031 50.644531 69.003906 C 48.074219 68.402344 45.488281 67.847656 42.902344 67.308594 C 42.679688 67.261719 42.414062 67.402344 42.171875 67.453125 C 42.351562 67.65625 42.496094 67.996094 42.707031 68.046875 C 44.484375 68.46875 46.273438 68.839844 48.300781 69.257812 Z M 48.300781 69.257812 " fill-opacity="1" fill-rule="nonzero"/><path fill="#e5e1d7" d="M 80.265625 56.773438 C 79.894531 57.351562 79.652344 58.183594 79.121094 58.453125 C 78.0625 58.996094 76.789062 59.664062 75.710938 59.515625 C 72.871094 59.121094 70.101562 58.265625 67.285156 57.695312 C 53.5 54.90625 39.714844 52.113281 25.910156 49.410156 C 22.804688 48.800781 19.628906 48.542969 16.488281 48.082031 C 15.496094 47.9375 14.527344 47.671875 13.472656 47.382812 C 13.863281 46.898438 14.289062 46.429688 14.804688 46.105469 C 17.402344 44.460938 17.851562 41.796875 17.640625 39.167969 C 17.4375 36.589844 16.59375 34.0625 16.152344 31.398438 C 16.511719 31.300781 16.761719 31.277344 16.992188 31.339844 C 21.992188 32.636719 26.976562 33.996094 31.988281 35.238281 C 40.574219 37.367188 49.179688 39.421875 57.777344 41.507812 C 63.285156 42.84375 68.808594 44.117188 74.296875 45.539062 C 78.800781 46.707031 81.003906 50.324219 80.246094 54.917969 C 80.144531 55.515625 80.253906 56.152344 80.265625 56.773438 Z M 22.957031 41.445312 L 22.972656 41.378906 C 22.972656 41.378906 22.980469 41.425781 22.976562 41.609375 C 23.246094 41.824219 23.484375 42.179688 23.78125 42.234375 C 26.128906 42.667969 28.484375 43.050781 30.839844 43.425781 C 31.121094 43.472656 31.425781 43.371094 31.71875 43.335938 C 31.476562 43.09375 31.261719 42.671875 30.988281 42.625 C 28.332031 42.195312 25.660156 41.820312 22.957031 41.445312 Z M 68.945312 46.695312 C 67.390625 46.289062 65.835938 45.890625 64.285156 45.476562 C 62.058594 44.878906 59.835938 44.253906 57.609375 43.667969 C 55.425781 43.09375 53.246094 42.484375 51.035156 42.039062 C 50.375 41.910156 49.824219 41.828125 49.160156 41.53125 C 47.503906 40.792969 45.621094 40.550781 43.828125 40.125 C 41.714844 39.625 39.589844 39.164062 37.484375 38.636719 C 35.695312 38.191406 33.925781 37.667969 32.132812 37.21875 C 31.9375 37.171875 31.683594 37.371094 31.453125 37.460938 C 31.582031 37.628906 31.679688 37.851562 31.847656 37.957031 C 32.089844 38.101562 32.386719 38.148438 32.65625 38.25 C 35.066406 39.167969 37.71875 39.125 40.113281 40.148438 C 41.011719 40.53125 42.046875 40.582031 42.996094 40.863281 C 46.214844 41.808594 49.417969 42.8125 52.636719 43.753906 C 58.316406 45.410156 64.003906 47.035156 69.6875 48.683594 C 70.453125 48.910156 71.183594 49.300781 71.960938 49.425781 C 72.292969 49.476562 72.707031 49.035156 73.078125 48.816406 C 72.84375 48.507812 72.671875 48.058594 72.363281 47.925781 C 71.328125 47.472656 70.238281 47.140625 68.945312 46.695312 Z M 59.03125 47.996094 C 60.707031 48.507812 62.402344 48.949219 64.046875 49.542969 C 65.453125 50.050781 66.972656 49.863281 68.367188 50.859375 C 69.628906 51.765625 71.449219 51.929688 73.046875 52.332031 C 73.429688 52.425781 73.902344 52.171875 74.335938 52.078125 C 74.074219 51.746094 73.878906 51.265625 73.539062 51.113281 C 71.609375 50.246094 69.507812 49.917969 67.515625 49.15625 C 64.183594 47.882812 60.679688 47.042969 57.222656 46.109375 C 51.761719 44.632812 46.285156 43.214844 40.804688 41.816406 C 39.148438 41.394531 37.453125 41.101562 35.769531 40.800781 C 35.429688 40.738281 35.046875 40.90625 34.683594 40.96875 C 35.019531 41.195312 35.328125 41.519531 35.699219 41.621094 C 37.714844 42.167969 39.757812 42.617188 41.765625 43.179688 C 45.285156 44.167969 48.78125 45.238281 52.304688 46.21875 C 54.476562 46.824219 56.679688 47.324219 59.03125 47.996094 Z M 53.597656 48.503906 C 54 48.492188 54.402344 48.472656 54.800781 48.460938 C 54.429688 48.253906 54.066406 48.023438 53.679688 47.847656 C 53.425781 47.734375 53.136719 47.691406 52.859375 47.632812 C 51.3125 47.300781 49.769531 46.960938 48.214844 46.664062 C 48.066406 46.632812 47.871094 46.847656 47.695312 46.949219 C 47.824219 47.054688 47.9375 47.226562 48.082031 47.253906 C 49.886719 47.628906 51.699219 47.976562 53.597656 48.503906 Z M 23.082031 35.679688 C 24.640625 36.140625 26.203125 36.601562 27.757812 37.0625 C 27.976562 37.128906 28.214844 37.269531 28.402344 37.214844 C 28.644531 37.148438 28.839844 36.925781 29.058594 36.765625 C 28.871094 36.675781 28.695312 36.558594 28.5 36.507812 C 27.054688 36.121094 25.613281 35.710938 24.152344 35.398438 C 23.769531 35.316406 23.3125 35.554688 23.082031 35.679688 Z M 27.058594 38.785156 C 26.554688 38.703125 26.054688 38.609375 25.550781 38.558594 C 25.425781 38.546875 25.285156 38.695312 25.152344 38.773438 C 25.25 38.84375 25.339844 38.957031 25.453125 38.976562 C 27.121094 39.304688 28.789062 39.621094 30.460938 39.925781 C 30.59375 39.949219 30.75 39.847656 30.898438 39.804688 C 30.792969 39.714844 30.707031 39.566406 30.589844 39.539062 C 29.492188 39.296875 28.390625 39.070312 27.058594 38.785156 Z M 42.882812 46.050781 C 43.621094 46.203125 44.351562 46.417969 45.097656 46.488281 C 45.394531 46.515625 45.714844 46.226562 46.027344 46.082031 C 45.785156 45.996094 45.550781 45.894531 45.304688 45.828125 C 44.597656 45.621094 43.902344 45.347656 43.179688 45.253906 C 42.597656 45.171875 41.988281 45.3125 41.390625 45.351562 C 41.816406 45.554688 42.246094 45.75 42.882812 46.050781 Z M 42.882812 46.050781 " fill-opacity="1" fill-rule="nonzero"/><path fill="#303033" d="M 136.445312 82.945312 C 119.90625 86.90625 103.382812 90.871094 86.855469 94.820312 C 78.925781 96.71875 70.984375 98.546875 63.074219 100.515625 C 62.226562 100.722656 61.222656 101.5 60.863281 102.277344 C 59.980469 104.203125 59.433594 106.277344 58.742188 108.292969 C 58.671875 108.5 58.558594 108.695312 58.355469 108.917969 C 57.636719 105.566406 59.003906 102.75 60.742188 100.019531 C 61.375 99.027344 62.367188 99.3125 63.257812 99.121094 C 65.464844 98.644531 67.648438 98.050781 69.84375 97.511719 C 90.3125 92.519531 110.78125 87.519531 131.253906 82.542969 C 133.910156 81.898438 136.597656 81.378906 139.398438 80.828125 C 140 81.570312 139.742188 82.03125 138.996094 82.273438 C 138.363281 82.484375 137.710938 82.636719 136.902344 82.839844 C 136.640625 82.855469 136.5625 82.882812 136.496094 82.945312 C 136.496094 82.945312 136.460938 82.9375 136.445312 82.945312 Z M 136.445312 82.945312 " fill-opacity="1" fill-rule="nonzero"/><path fill="#303033" d="M 78.96875 75.046875 C 77.761719 71 74.410156 70.429688 70.929688 69.800781 C 62.765625 68.328125 54.609375 66.757812 46.476562 65.109375 C 38.390625 63.46875 30.328125 61.714844 22.269531 59.949219 C 19.175781 59.273438 16.117188 58.429688 12.925781 57.667969 C 11.78125 56.929688 10.054688 56.863281 10.195312 54.882812 C 10.363281 54.753906 10.558594 54.667969 10.644531 54.734375 C 14.242188 57.332031 18.613281 57.730469 22.71875 58.667969 C 35.851562 61.664062 49.050781 64.382812 62.246094 67.132812 C 66.097656 67.933594 69.984375 68.65625 73.890625 69.089844 C 77.046875 69.441406 78.363281 71.3125 79.058594 74.011719 C 79.136719 74.328125 79.078125 74.683594 78.96875 75.046875 Z M 78.96875 75.046875 " fill-opacity="1" fill-rule="nonzero"/><path fill="#303033" d="M 80.367188 56.753906 C 80.253906 56.152344 80.144531 55.515625 80.246094 54.910156 C 81.003906 50.320312 78.804688 46.703125 74.296875 45.53125 C 68.808594 44.113281 63.285156 42.835938 57.777344 41.5 C 49.179688 39.417969 40.574219 37.363281 31.988281 35.234375 C 26.976562 33.992188 21.992188 32.632812 16.992188 31.332031 C 16.761719 31.273438 16.511719 31.292969 16.152344 31.277344 C 15.507812 30.601562 14.027344 31.644531 13.96875 30.027344 C 15.144531 30.019531 16.371094 29.929688 17.472656 30.25 C 30.96875 34.191406 44.621094 37.503906 58.347656 40.535156 C 63.914062 41.769531 69.441406 43.179688 74.96875 44.570312 C 79.855469 45.800781 82.988281 51.757812 80.804688 56.300781 C 80.730469 56.464844 80.585938 56.59375 80.367188 56.753906 Z M 80.367188 56.753906 " fill-opacity="1" fill-rule="nonzero"/><path fill="#303033" d="M 13.628906 59.765625 C 14.367188 59.894531 15.007812 60.128906 15.671875 60.261719 C 22.058594 61.535156 28.457031 62.761719 34.835938 64.070312 C 36.308594 64.371094 37.734375 65.371094 39.15625 65.316406 C 42.21875 65.199219 44.914062 66.605469 47.84375 66.933594 C 48.722656 67.027344 49.585938 67.277344 50.441406 67.515625 C 50.625 67.566406 50.730469 67.871094 50.871094 68.0625 C 50.683594 68.085938 50.484375 68.160156 50.3125 68.125 C 48.078125 67.683594 45.839844 67.25 43.613281 66.777344 C 40.742188 66.164062 37.894531 65.46875 35.015625 64.898438 C 30.484375 64 25.941406 63.15625 21.398438 62.308594 C 19.109375 61.882812 16.8125 61.5 14.402344 61.113281 C 13.46875 61.011719 13.300781 60.53125 13.628906 59.765625 Z M 13.628906 59.765625 " fill-opacity="1" fill-rule="nonzero"/><path fill="#303033" d="M 118.796875 28.207031 C 118.570312 28.660156 118.375 29.304688 117.992188 29.449219 C 110.683594 32.21875 103.351562 34.933594 96.011719 37.625 C 95.464844 37.824219 94.824219 37.765625 94.230469 37.824219 C 94.679688 37.46875 95.078125 36.988281 95.589844 36.785156 C 101.140625 34.539062 106.703125 32.316406 112.28125 30.136719 C 114.195312 29.386719 116.15625 28.765625 118.21875 28.070312 C 118.476562 28.089844 118.609375 28.128906 118.796875 28.207031 Z M 118.796875 28.207031 " fill-opacity="1" fill-rule="nonzero"/><path fill="#e5e1d7" d="M 136.554688 82.992188 C 136.5625 82.882812 136.640625 82.855469 136.796875 82.882812 C 136.777344 82.945312 136.695312 82.992188 136.554688 82.992188 Z M 136.554688 82.992188 " fill-opacity="1" fill-rule="nonzero"/><path fill="#303033" d="M 15.003906 74.390625 C 15.355469 74.488281 15.597656 74.601562 15.9375 74.738281 C 21.570312 78.871094 27.292969 82.683594 33.496094 85.730469 C 34.394531 86.175781 35.246094 86.730469 36.082031 87.296875 C 36.316406 87.457031 36.402344 87.835938 36.554688 88.117188 C 36.214844 88.109375 35.808594 88.214844 35.535156 88.070312 C 33.152344 86.808594 30.730469 85.597656 28.4375 84.179688 C 24.050781 81.472656 19.734375 78.65625 15.414062 75.847656 C 14.957031 75.554688 13.980469 75.265625 15.003906 74.390625 Z M 15.003906 74.390625 " fill-opacity="1" fill-rule="nonzero"/><path fill="#303033" d="M 55.410156 96.839844 C 52.640625 95.695312 49.964844 94.621094 47.308594 93.492188 C 46.917969 93.328125 46.648438 92.898438 46.324219 92.59375 C 46.757812 92.601562 47.238281 92.488281 47.613281 92.636719 C 50.800781 93.863281 53.976562 95.117188 57.132812 96.417969 C 57.589844 96.609375 57.921875 97.109375 58.3125 97.46875 C 57.765625 97.46875 57.203125 97.539062 56.675781 97.441406 C 56.265625 97.371094 55.894531 97.085938 55.410156 96.839844 Z M 55.410156 96.839844 " fill-opacity="1" fill-rule="nonzero"/><path fill="#303033" d="M 115.976562 47.828125 C 108.960938 51.648438 102.054688 55.445312 95.121094 59.1875 C 94.53125 59.503906 93.75 59.472656 93.054688 59.601562 C 93.558594 59.175781 94.003906 58.644531 94.570312 58.332031 C 102.277344 54.097656 109.996094 49.886719 117.730469 45.703125 C 118.339844 45.378906 119.085938 45.320312 119.773438 45.136719 C 119.246094 45.613281 118.761719 46.140625 118.191406 46.550781 C 117.523438 47.019531 116.785156 47.382812 115.976562 47.828125 Z M 115.976562 47.828125 " fill-opacity="1" fill-rule="nonzero"/><path fill="#303033" d="M 92.046875 101.078125 C 91.601562 100.976562 91.277344 100.875 90.949219 100.773438 C 91.21875 100.621094 91.472656 100.402344 91.761719 100.320312 C 96.039062 99.109375 100.316406 97.898438 104.605469 96.726562 C 107.992188 95.796875 111.390625 94.886719 114.800781 94.03125 C 117.378906 93.382812 119.976562 92.828125 122.574219 92.269531 C 122.804688 92.222656 123.101562 92.480469 123.371094 92.597656 C 123.152344 92.722656 122.949219 92.910156 122.710938 92.960938 C 121.035156 93.328125 119.332031 93.601562 117.671875 94.035156 C 116.046875 94.457031 114.476562 95.109375 112.847656 95.53125 C 109.9375 96.289062 106.984375 96.882812 104.082031 97.667969 C 100.09375 98.746094 96.132812 99.9375 92.046875 101.078125 Z M 92.046875 101.078125 " fill-opacity="1" fill-rule="nonzero"/><path fill="#303033" d="M 119.574219 90.796875 C 115.917969 91.765625 112.375 92.699219 108.8125 93.574219 C 107.351562 93.933594 105.855469 94.136719 104.382812 94.460938 C 103.847656 94.578125 103.351562 94.84375 102.828125 95.015625 C 102.707031 95.054688 102.550781 94.976562 102.410156 94.957031 C 102.519531 94.839844 102.605469 94.671875 102.742188 94.605469 C 103.714844 94.152344 104.660156 93.582031 105.6875 93.300781 C 111.671875 91.667969 117.664062 90.09375 123.664062 88.53125 C 125.371094 88.085938 127.101562 87.726562 128.832031 87.371094 C 129.097656 87.316406 129.414062 87.511719 129.707031 87.59375 C 129.484375 87.828125 129.308594 88.214844 129.042969 88.285156 C 125.929688 89.136719 122.800781 89.933594 119.574219 90.796875 Z M 119.574219 90.796875 " fill-opacity="1" fill-rule="nonzero"/><path fill="#303033" d="M 99.226562 100.871094 C 101.257812 100.363281 103.179688 99.867188 105.109375 99.390625 C 105.214844 99.363281 105.355469 99.480469 105.484375 99.535156 C 105.367188 99.628906 105.265625 99.765625 105.132812 99.800781 C 102.933594 100.382812 100.734375 100.972656 98.527344 101.519531 C 98.203125 101.601562 97.832031 101.484375 97.480469 101.460938 C 97.796875 101.316406 98.105469 101.148438 98.433594 101.027344 C 98.648438 100.949219 98.886719 100.9375 99.226562 100.871094 Z M 99.226562 100.871094 " fill-opacity="1" fill-rule="nonzero"/><path fill="#303033" d="M 65.539062 71.078125 C 66.800781 71.5 67.980469 71.855469 69.152344 72.238281 C 69.335938 72.300781 69.484375 72.480469 69.652344 72.601562 C 69.433594 72.628906 69.195312 72.722656 68.992188 72.675781 C 67.363281 72.3125 65.734375 71.929688 64.109375 71.539062 C 60.46875 70.660156 56.820312 69.78125 53.183594 68.878906 C 52.835938 68.792969 52.53125 68.515625 52.207031 68.332031 C 52.613281 68.25 53.050781 68.019531 53.40625 68.113281 C 57.0625 69.074219 60.707031 70.101562 64.355469 71.078125 C 64.691406 71.164062 65.085938 71.042969 65.539062 71.078125 Z M 65.539062 71.078125 " fill-opacity="1" fill-rule="nonzero"/><path fill="#303033" d="M 48.179688 69.238281 C 46.273438 68.835938 44.484375 68.464844 42.707031 68.042969 C 42.496094 67.992188 42.347656 67.65625 42.171875 67.449219 C 42.414062 67.398438 42.679688 67.257812 42.902344 67.308594 C 45.488281 67.847656 48.074219 68.398438 50.644531 69 C 50.988281 69.082031 51.265625 69.460938 51.570312 69.703125 C 51.210938 69.730469 50.839844 69.835938 50.496094 69.777344 C 49.757812 69.648438 49.03125 69.4375 48.179688 69.238281 Z M 48.179688 69.238281 " fill-opacity="1" fill-rule="nonzero"/><path fill="#303033" d="M 69.054688 46.726562 C 70.238281 47.140625 71.328125 47.472656 72.367188 47.921875 C 72.675781 48.054688 72.847656 48.507812 73.082031 48.8125 C 72.707031 49.03125 72.292969 49.476562 71.964844 49.421875 C 71.183594 49.300781 70.457031 48.90625 69.6875 48.683594 C 64.007812 47.03125 58.320312 45.410156 52.640625 43.75 C 49.417969 42.808594 46.21875 41.804688 43 40.859375 C 42.050781 40.578125 41.015625 40.53125 40.117188 40.148438 C 37.722656 39.121094 35.070312 39.164062 32.660156 38.246094 C 32.390625 38.144531 32.09375 38.097656 31.851562 37.953125 C 31.683594 37.851562 31.585938 37.625 31.453125 37.457031 C 31.683594 37.371094 31.941406 37.167969 32.136719 37.214844 C 33.925781 37.667969 35.695312 38.191406 37.488281 38.636719 C 39.59375 39.15625 41.71875 39.621094 43.832031 40.125 C 45.625 40.550781 47.507812 40.785156 49.164062 41.527344 C 49.824219 41.824219 50.375 41.90625 51.039062 42.039062 C 53.246094 42.480469 55.425781 43.089844 57.609375 43.664062 C 59.839844 44.25 62.0625 44.875 64.285156 45.472656 C 65.835938 45.890625 67.390625 46.289062 69.054688 46.726562 Z M 69.054688 46.726562 " fill-opacity="1" fill-rule="nonzero"/><path fill="#303033" d="M 58.949219 47.933594 C 56.679688 47.324219 54.476562 46.824219 52.304688 46.21875 C 48.785156 45.238281 45.289062 44.167969 41.769531 43.179688 C 39.757812 42.617188 37.71875 42.167969 35.703125 41.621094 C 35.332031 41.519531 35.023438 41.191406 34.683594 40.96875 C 35.046875 40.90625 35.429688 40.742188 35.773438 40.800781 C 37.457031 41.101562 39.148438 41.394531 40.804688 41.816406 C 46.285156 43.214844 51.765625 44.632812 57.226562 46.109375 C 60.683594 47.042969 64.1875 47.882812 67.519531 49.15625 C 69.511719 49.917969 71.613281 50.242188 73.542969 51.113281 C 73.882812 51.265625 74.078125 51.746094 74.339844 52.078125 C 73.90625 52.175781 73.433594 52.425781 73.050781 52.332031 C 71.453125 51.929688 69.632812 51.765625 68.367188 50.859375 C 66.976562 49.859375 65.457031 50.050781 64.050781 49.542969 C 62.402344 48.945312 60.707031 48.503906 58.949219 47.933594 Z M 58.949219 47.933594 " fill-opacity="1" fill-rule="nonzero"/><path fill="#303033" d="M 22.996094 41.429688 C 25.660156 41.820312 28.332031 42.191406 30.988281 42.625 C 31.265625 42.671875 31.480469 43.09375 31.71875 43.335938 C 31.425781 43.371094 31.125 43.46875 30.84375 43.425781 C 28.488281 43.050781 26.132812 42.667969 23.785156 42.234375 C 23.488281 42.179688 23.246094 41.824219 22.984375 41.519531 C 22.992188 41.429688 22.996094 41.429688 22.996094 41.429688 Z M 22.996094 41.429688 " fill-opacity="1" fill-rule="nonzero"/><path fill="#303033" d="M 53.554688 48.417969 C 51.699219 47.976562 49.886719 47.628906 48.082031 47.257812 C 47.9375 47.230469 47.820312 47.054688 47.695312 46.949219 C 47.871094 46.847656 48.066406 46.636719 48.214844 46.664062 C 49.769531 46.964844 51.3125 47.304688 52.859375 47.636719 C 53.132812 47.695312 53.425781 47.738281 53.679688 47.851562 C 54.066406 48.027344 54.429688 48.257812 54.800781 48.464844 C 54.398438 48.472656 53.996094 48.492188 53.554688 48.417969 Z M 53.554688 48.417969 " fill-opacity="1" fill-rule="nonzero"/><path fill="#303033" d="M 22.984375 35.664062 C 23.3125 35.554688 23.769531 35.316406 24.15625 35.394531 C 25.617188 35.707031 27.058594 36.117188 28.503906 36.503906 C 28.699219 36.554688 28.875 36.675781 29.0625 36.761719 C 28.84375 36.917969 28.648438 37.144531 28.40625 37.214844 C 28.21875 37.265625 27.980469 37.125 27.761719 37.058594 C 26.203125 36.601562 24.640625 36.136719 22.984375 35.664062 Z M 22.984375 35.664062 " fill-opacity="1" fill-rule="nonzero"/><path fill="#303033" d="M 27.175781 38.8125 C 28.390625 39.070312 29.488281 39.296875 30.582031 39.542969 C 30.699219 39.570312 30.789062 39.714844 30.890625 39.808594 C 30.746094 39.851562 30.589844 39.949219 30.457031 39.929688 C 28.785156 39.625 27.117188 39.304688 25.445312 38.980469 C 25.339844 38.957031 25.246094 38.84375 25.144531 38.773438 C 25.28125 38.699219 25.421875 38.550781 25.546875 38.5625 C 26.054688 38.609375 26.554688 38.707031 27.175781 38.8125 Z M 27.175781 38.8125 " fill-opacity="1" fill-rule="nonzero"/><path fill="#303033" d="M 42.777344 46 C 42.242188 45.753906 41.816406 45.554688 41.390625 45.355469 C 41.988281 45.3125 42.597656 45.175781 43.179688 45.253906 C 43.902344 45.351562 44.597656 45.625 45.304688 45.828125 C 45.550781 45.898438 45.785156 46 46.027344 46.085938 C 45.714844 46.226562 45.394531 46.515625 45.097656 46.488281 C 44.351562 46.417969 43.621094 46.207031 42.777344 46 Z M 42.777344 46 " fill-opacity="1" fill-rule="nonzero"/><path fill="#303033" d="M 22.984375 41.429688 C 22.980469 41.425781 22.972656 41.378906 22.972656 41.378906 C 22.972656 41.378906 22.957031 41.445312 22.972656 41.4375 C 22.996094 41.429688 22.992188 41.429688 22.984375 41.429688 Z M 22.984375 41.429688 " fill-opacity="1" fill-rule="nonzero"/><g clip-path="url(#ed7043ca67)"><g clip-path="url(#39ab2d8bd0)"><path fill="#2e59a7" d="M 55.199219 27.523438 L 61.953125 27.523438 L 61.953125 34.050781 L 55.199219 34.050781 Z M 55.199219 27.523438 " fill-opacity="1" fill-rule="nonzero"/></g></g></svg>